<?xml version="1.0" standalone="no"?>
<!DOCTYPE svg PUBLIC "-//W3C//DTD SVG 20010904//EN"
 "http://www.w3.org/TR/2001/REC-SVG-20010904/DTD/svg10.dtd">
<svg version="1.0" xmlns="http://www.w3.org/2000/svg"
 width="1400.000000pt" height="700.000000pt" viewBox="0 0 1400.000000 700.000000"
 preserveAspectRatio="xMidYMid meet">

<g transform="translate(0.000000,700.000000) scale(0.100000,-0.100000)"
fill="#000000" stroke="none">
<path d="M4522 6780 c-96 -64 -97 -53 10 -197 127 -172 368 -538 368 -558 0
-4 -28 -38 -62 -78 -114 -132 -403 -538 -420 -589 -2 -6 -23 -6 -63 1 -249 44
-681 60 -850 32 -138 -23 -217 -63 -227 -115 -2 -12 -23 -26 -58 -40 -30 -11
-65 -26 -76 -33 -28 -16 -48 -66 -40 -99 29 -113 414 -289 883 -404 l92 -22
-31 -81 c-69 -186 -69 -170 6 -192 l47 -14 14 32 c8 18 32 75 52 127 31 76 42
95 58 94 11 -1 83 -11 160 -22 536 -81 942 -32 978 117 8 31 -21 98 -56 130
-20 18 -25 30 -20 51 8 41 -24 97 -81 143 -97 77 -356 185 -561 234 -41 10
-75 21 -75 25 0 12 161 232 255 348 52 63 141 167 199 230 58 63 106 120 106
125 0 6 -31 48 -68 96 -100 127 -208 285 -317 464 -138 226 -144 235 -154 235
-5 0 -36 -18 -69 -40z m-472 -1515 c74 -8 170 -19 212 -26 l77 -11 -25 -49
c-27 -54 -28 -55 -64 -34 -30 17 -40 18 -40 5 0 -5 14 -16 30 -25 46 -24 36
-35 -30 -35 -41 0 -60 -4 -60 -12 0 -9 17 -12 59 -10 50 3 63 0 80 -17 14 -14
34 -21 60 -21 24 0 48 -8 65 -21 34 -27 47 -17 18 14 -31 33 -28 37 23 37 25
0 45 5 45 10 0 6 -16 10 -35 10 -19 0 -35 3 -35 6 0 4 13 30 30 59 l30 52 62
-14 c305 -70 556 -181 535 -237 -12 -30 -86 -41 -277 -40 -135 1 -224 7 -330
23 -420 64 -845 186 -983 284 -25 17 -27 22 -15 33 8 8 34 18 59 23 71 14 363
12 509 -4z"/>
<path d="M7046 6383 c-5 -16 -66 -761 -66 -804 0 -13 -15 -17 -82 -23 -300
-25 -674 -190 -929 -408 -139 -121 -223 -256 -235 -383 -4 -38 -11 -76 -17
-83 -20 -25 -105 -61 -193 -83 -142 -35 -204 -81 -204 -154 0 -42 18 -65 67
-87 40 -17 58 -19 176 -13 123 6 134 5 165 -14 33 -21 33 -22 26 -80 -6 -56
-5 -60 20 -76 21 -14 39 -16 89 -12 76 7 109 -3 214 -70 143 -91 195 -95 388
-27 72 25 153 52 180 60 52 14 147 19 158 7 4 -4 -74 -55 -173 -113 -178 -105
-182 -107 -248 -109 -243 -6 -470 -77 -560 -175 -53 -57 -61 -98 -33 -162 12
-26 20 -48 19 -50 -2 -1 -56 -32 -121 -69 -125 -70 -148 -95 -128 -134 17 -31
56 -47 200 -82 73 -17 130 -34 128 -37 -43 -80 -64 -226 -48 -328 28 -180 138
-267 414 -329 313 -69 570 -99 862 -98 412 0 736 68 1042 218 135 66 228 138
272 209 31 50 43 121 32 180 -6 28 -13 68 -16 89 -3 21 -19 52 -35 71 -32 36
-36 46 -20 46 6 0 80 33 165 74 133 64 155 78 161 102 4 15 2 34 -3 43 -6 9
-64 33 -129 54 -65 21 -125 40 -131 42 -9 3 -5 19 13 53 20 38 24 57 19 84
-28 147 -337 253 -685 234 -69 -3 -145 -10 -169 -15 -40 -8 -54 -5 -134 30
-49 22 -102 46 -119 55 l-31 16 199 66 199 66 120 0 c66 -1 181 -2 255 -5 115
-3 142 -1 185 15 69 26 171 95 243 164 67 65 82 105 62 166 -13 40 -77 101
-142 136 l-43 22 0 77 c0 66 -4 85 -32 142 -57 116 -190 248 -372 370 -258
174 -543 273 -873 305 l-68 6 0 182 0 183 48 -10 c42 -9 61 -7 136 17 48 15
109 30 135 33 58 7 142 -16 191 -52 45 -33 53 -24 74 85 9 47 27 126 41 175
l24 90 -30 26 c-60 53 -156 62 -299 29 -159 -36 -270 -18 -306 51 -16 32 -40
38 -48 12z m172 -128 c35 -4 84 1 177 20 94 20 144 25 179 20 61 -8 108 -33
101 -55 -4 -14 -50 -207 -60 -257 l-5 -22 -48 21 c-77 34 -175 36 -276 4 -90
-28 -167 -34 -184 -13 -5 6 -12 84 -14 173 l-4 161 43 -22 c23 -13 64 -26 91
-30z m-175 -947 c-2 -5 -14 -8 -25 -8 -20 0 -21 4 -15 73 4 39 12 149 19 242
l13 170 6 -235 c4 -129 5 -238 2 -242z m-77 175 c-3 -21 -6 -60 -6 -88 0 -68
-11 -83 -41 -61 -33 23 -49 20 -49 -8 0 -58 168 -92 241 -50 42 25 45 49 7 49
l-28 -1 0 96 0 96 88 -8 c379 -33 779 -215 1038 -473 76 -75 109 -116 132
-165 37 -77 42 -69 -90 -135 -176 -90 -403 -155 -608 -175 -122 -13 -145 -19
-145 -41 0 -11 18 -14 85 -13 188 3 471 78 679 180 62 30 116 53 119 50 23
-24 -172 -128 -345 -185 -114 -38 -272 -71 -339 -71 -45 0 -94 -11 -94 -21 0
-15 102 -10 225 11 150 26 302 76 432 145 96 50 120 53 90 13 -7 -9 -53 -34
-102 -56 -152 -68 -338 -120 -488 -138 -56 -7 -77 -17 -58 -28 29 -19 336 51
477 108 49 19 90 33 92 31 7 -6 -73 -53 -134 -78 -188 -79 -547 -135 -919
-144 -249 -6 -450 5 -657 37 -376 58 -602 131 -708 230 -42 39 -42 40 -10 20
117 -72 337 -150 426 -150 46 0 43 18 -3 26 -156 26 -278 70 -390 140 -86 54
-103 69 -103 95 0 16 10 11 63 -27 123 -92 337 -170 519 -189 58 -6 69 -5 74
9 4 9 4 19 1 22 -3 3 -54 14 -114 24 -122 21 -254 60 -328 98 -109 55 -205
132 -205 165 0 58 109 205 223 304 215 185 584 351 850 382 119 14 110 16 103
-26z m-1144 -924 c98 -96 270 -160 593 -223 245 -47 396 -60 710 -60 310 0
451 12 715 60 285 52 471 134 537 239 15 24 31 44 34 45 15 1 130 -82 145
-105 39 -59 17 -105 -91 -192 -154 -123 -227 -143 -449 -118 -186 20 -248 12
-481 -67 -160 -54 -191 -61 -280 -65 l-101 -5 -166 56 c-228 77 -263 77 -483
0 -241 -85 -264 -83 -449 32 -78 48 -80 49 -169 51 -49 2 -91 4 -93 6 -2 2 1
20 7 40 12 44 -2 80 -42 109 -42 31 -100 39 -199 28 -100 -13 -155 -3 -186 31
-17 18 -17 23 -4 46 24 42 61 63 156 87 101 26 187 61 206 83 11 13 14 12 27
-8 8 -13 36 -45 63 -70z m1258 -515 c25 -8 79 -17 120 -21 50 -4 96 -16 140
-36 36 -16 90 -40 120 -54 l55 -25 -76 -24 c-99 -31 -191 -91 -227 -147 l-28
-44 -44 39 c-92 82 -281 147 -495 171 l-110 13 150 88 c83 49 159 94 170 101
17 11 32 8 100 -17 44 -17 100 -36 125 -44z m971 -259 c148 -22 239 -64 239
-110 0 -52 -144 -121 -312 -151 -133 -24 -394 -25 -468 -2 -65 20 -127 71
-136 111 -26 113 359 200 677 152z m-1279 -64 c151 -35 238 -89 238 -147 0
-37 -64 -100 -128 -126 -53 -22 -70 -23 -267 -22 -178 0 -226 4 -314 23 -161
34 -300 102 -317 153 -15 48 94 106 250 133 119 21 422 13 538 -14z m1812
-229 c50 -16 92 -34 94 -41 4 -13 -210 -118 -420 -205 -279 -115 -640 -237
-802 -271 -194 -40 -274 -33 -625 50 -912 217 -1198 287 -1219 301 -21 13 -22
18 -11 29 14 14 227 135 236 135 3 0 36 -21 74 -46 188 -125 444 -186 779
-187 171 -1 252 13 341 59 70 35 138 100 164 157 l22 47 17 -25 c25 -38 125
-99 198 -121 52 -16 94 -19 238 -18 180 0 276 11 415 46 84 21 217 78 280 121
42 28 21 31 219 -31z"/>
<path d="M7370 5300 c0 -16 38 -32 46 -19 7 12 -12 29 -33 29 -7 0 -13 -4 -13
-10z"/>
<path d="M6634 5256 c-10 -8 -16 -18 -12 -22 10 -9 58 12 58 26 0 14 -23 12
-46 -4z"/>
<path d="M7297 5184 c-7 -7 13 -54 24 -54 16 0 19 20 7 40 -13 21 -20 24 -31
14z"/>
<path d="M6970 5144 c0 -45 24 -42 28 4 2 24 -1 32 -12 32 -12 0 -16 -10 -16
-36z"/>
<path d="M7536 5162 c-3 -5 3 -17 14 -27 17 -15 20 -16 20 -3 0 19 -26 42 -34
30z"/>
<path d="M6508 5109 c-16 -9 -26 -39 -13 -39 15 0 54 33 49 41 -7 11 -15 11
-36 -2z"/>
<path d="M6781 5102 c-14 -25 -14 -42 -1 -42 16 0 33 41 22 52 -7 7 -14 3 -21
-10z"/>
<path d="M7830 5110 c0 -17 41 -33 53 -21 9 9 8 14 -3 21 -20 13 -50 13 -50 0z"/>
<path d="M6317 5062 c-18 -20 -22 -42 -9 -42 14 0 53 46 45 53 -10 11 -19 8
-36 -11z"/>
<path d="M7720 5007 c0 -16 38 -40 51 -31 6 4 4 13 -7 25 -19 22 -44 25 -44 6z"/>
<path d="M7190 4959 c0 -38 24 -35 28 4 2 19 -1 27 -12 27 -11 0 -16 -10 -16
-31z"/>
<path d="M7516 4942 c-8 -13 10 -52 24 -52 14 0 12 23 -3 45 -10 12 -16 14
-21 7z"/>
<path d="M6118 4895 c-16 -35 -1 -45 22 -15 24 30 25 40 5 40 -9 0 -21 -11
-27 -25z"/>
<path d="M8005 4909 c-7 -11 42 -65 51 -56 10 10 -5 41 -25 54 -14 8 -22 9
-26 2z"/>
<path d="M6510 4895 c-7 -8 -10 -19 -6 -22 9 -9 38 8 38 22 -1 16 -18 16 -32
0z"/>
<path d="M6816 4864 c-3 -9 -6 -25 -6 -37 0 -19 2 -19 14 -7 22 24 30 60 13
60 -8 0 -18 -7 -21 -16z"/>
<path d="M7736 4812 c-3 -5 2 -19 11 -31 20 -29 40 -13 24 18 -12 22 -26 27
-35 13z"/>
<path d="M6322 4798 c-14 -14 -16 -38 -4 -38 12 0 32 23 32 37 0 16 -12 17
-28 1z"/>
<path d="M7347 4804 c-10 -11 -8 -64 2 -64 14 0 23 37 14 55 -5 9 -12 12 -16
9z"/>
<path d="M6830 3151 c0 -6 17 -15 38 -20 20 -6 76 -22 124 -35 49 -13 90 -20
93 -16 5 8 -67 33 -175 60 -25 6 -53 13 -62 16 -10 3 -18 1 -18 -5z"/>
<path d="M6754 3111 c11 -17 325 -101 378 -101 44 0 2 18 -82 35 -47 10 -129
30 -182 46 -104 31 -122 34 -114 20z"/>
<path d="M8670 5975 c-39 -53 -40 -56 -40 -138 0 -177 70 -352 208 -515 71
-85 77 -87 158 -56 38 14 72 29 76 32 4 4 -1 37 -10 74 -15 58 -22 70 -58 96
-133 96 -205 285 -172 445 11 48 12 70 4 76 -11 9 -104 41 -117 41 -5 0 -27
-25 -49 -55z m122 -14 c3 -3 2 -31 -3 -61 -25 -147 47 -348 159 -440 39 -32
39 -35 1 -45 -23 -6 -32 0 -62 37 -81 98 -129 245 -143 437 l-7 93 24 -7 c13
-4 27 -10 31 -14z m-68 -87 c14 -191 69 -348 155 -446 35 -39 41 -53 41 -90
l-1 -43 -50 55 c-113 123 -187 293 -197 454 -4 74 -2 95 13 122 10 19 21 34
25 34 4 0 10 -39 14 -86z m295 -495 c17 -49 14 -56 -29 -73 -22 -9 -43 -16
-45 -16 -3 0 -5 22 -5 49 0 45 3 50 28 59 39 15 39 15 51 -19z"/>
<path d="M9911 5650 l-32 -60 24 -60 c76 -186 222 -338 411 -426 83 -38 97
-37 198 3 l38 15 0 74 0 74 -69 34 c-128 65 -256 182 -336 308 -24 39 -36 47
-104 71 -42 15 -82 27 -88 27 -5 0 -25 -27 -42 -60z m123 -6 l48 -17 -34 -34
c-32 -32 -36 -33 -68 -22 -50 17 -54 23 -36 58 19 36 25 37 90 15z m109 -101
c85 -115 184 -201 312 -270 66 -36 56 -44 -14 -13 -48 22 -61 24 -61 11 0 -8
26 -20 109 -52 13 -5 22 -12 19 -15 -3 -2 -17 0 -31 5 -42 16 -43 -6 -1 -24
20 -8 34 -18 31 -21 -8 -9 -146 69 -216 122 -72 54 -156 136 -211 205 l-40 51
26 34 c15 19 28 33 29 32 2 -2 23 -31 48 -65z m-137 -3 c11 -5 29 -21 39 -37
75 -115 231 -248 383 -328 29 -15 52 -30 52 -34 0 -4 -19 -12 -42 -19 -42 -11
-46 -10 -136 34 -142 71 -267 197 -341 341 -34 67 -30 71 45 43z"/>
<path d="M9390 5263 c-135 -117 -315 -226 -485 -294 -61 -24 -175 -111 -175
-133 0 -18 135 -146 153 -146 34 0 201 66 342 135 148 71 353 200 427 267 l37
33 -14 79 c-8 43 -16 81 -19 83 -7 8 -150 43 -171 42 -11 0 -54 -30 -95 -66z
m110 19 c0 -10 -73 -79 -129 -122 -24 -19 -39 -36 -32 -38 15 -5 109 67 156
119 19 21 40 39 47 39 7 0 -9 -22 -35 -48 -26 -26 -47 -54 -47 -62 0 -8 27 12
59 44 45 45 64 57 78 52 16 -7 14 -11 -17 -38 -166 -144 -414 -289 -593 -347
-33 -11 -41 -10 -74 10 l-36 23 24 9 c198 80 381 192 549 336 35 31 50 37 50
23z m139 -120 c1 -29 -6 -38 -81 -93 -107 -79 -240 -157 -381 -224 -115 -55
-264 -111 -272 -103 -3 2 6 27 19 54 23 46 28 50 92 72 161 56 399 193 544
315 61 51 65 54 72 33 3 -11 6 -36 7 -54z m-743 -287 l32 -25 -24 -50 c-13
-27 -27 -50 -31 -50 -4 0 -27 19 -50 42 l-43 42 32 33 c18 18 36 33 42 33 5 0
24 -11 42 -25z"/>
<path d="M2479 5208 c-66 -38 -96 -123 -68 -195 17 -45 79 -102 135 -123 29
-10 94 -26 146 -35 51 -9 117 -27 147 -41 77 -35 91 -33 91 14 0 20 -9 55 -19
77 -36 81 -207 272 -273 306 -49 25 -113 24 -159 -3z m140 -32 c63 -33 271
-280 271 -322 0 -18 1 -18 -51 5 -24 11 -95 28 -157 39 -127 23 -188 52 -221
106 -67 108 45 230 158 172z"/>
<path d="M11300 4913 c-60 -4 -67 -7 -110 -47 -123 -115 -326 -148 -494 -81
-37 15 -71 23 -76 19 -4 -5 -22 -34 -38 -64 l-31 -55 54 -57 c47 -49 60 -58
111 -68 90 -19 249 -14 350 10 97 22 268 101 322 147 l33 28 -12 75 c-11 71
-23 102 -38 98 -3 -1 -35 -3 -71 -5z m64 -74 c13 -65 11 -68 -41 -57 -53 12
-63 21 -63 61 0 26 2 27 49 27 46 0 49 -1 55 -31z m-124 -27 c0 -34 -4 -41
-40 -61 -110 -62 -258 -86 -428 -71 -121 11 -162 19 -162 28 0 4 8 17 18 29
l17 23 55 -21 c70 -27 199 -36 282 -20 75 15 169 58 218 100 19 17 36 30 38
31 1 0 2 -17 2 -38z m60 -63 c-8 -5 -32 -19 -52 -30 -21 -10 -38 -24 -38 -29
0 -17 15 -11 78 29 64 42 97 45 36 3 -63 -43 -180 -91 -270 -113 -98 -23 -249
-27 -329 -9 -44 10 -105 51 -105 70 0 4 24 3 53 -2 28 -5 113 -10 187 -11 147
-1 222 13 315 58 30 15 52 20 56 14 3 -6 15 -2 30 10 13 11 31 20 39 21 13 0
13 -1 0 -11z"/>
<path d="M10035 4730 c-3 -5 -2 -81 4 -167 10 -160 15 -410 13 -605 l-2 -107
-52 6 c-29 3 -55 8 -58 10 -2 2 -7 92 -10 201 l-5 197 -127 3 -128 3 0 143 c0
122 -2 145 -16 150 -9 3 -76 6 -149 6 l-134 0 -3 -112 -3 -113 -87 -3 c-74 -2
-88 -5 -93 -21 -3 -11 -5 -23 -4 -27 1 -5 1 -122 0 -260 l-1 -250 -103 -116
-103 -117 2 -163 c5 -594 -74 -1231 -228 -1841 l-50 -198 72 -79 c54 -60 79
-81 103 -84 18 -3 129 -17 247 -31 268 -33 645 -86 900 -127 l195 -31 108 29
108 29 73 110 c339 510 579 1095 705 1716 17 79 36 184 43 232 l12 89 -53 105
-54 106 -1 291 -1 291 -76 3 -76 3 -6 97 c-9 150 -2 141 -116 144 l-96 3 -3
53 -3 53 -117 -3 -117 -3 -3 -292 c-2 -310 -1 -300 -49 -287 -19 5 -23 13 -23
49 0 23 -3 76 -6 118 l-7 77 -57 0 -57 0 -6 213 c-5 184 -29 467 -42 505 -5
15 -250 17 -260 2z m230 -72 c17 -122 26 -253 32 -439 l6 -206 -33 -6 c-18 -4
-52 -7 -76 -7 l-44 0 0 -194 c0 -107 -3 -197 -8 -199 -4 -3 -20 -3 -36 0 l-28
6 7 86 c10 123 8 702 -4 855 -5 72 -8 134 -5 138 3 4 45 8 94 8 l89 0 6 -42z
m-642 -135 c2 -5 6 -186 8 -403 l4 -394 -25 -6 c-25 -6 -25 -7 -31 -140 -4
-74 -7 -233 -8 -352 0 -120 -4 -218 -8 -217 -5 0 -18 13 -31 29 l-23 29 -2
638 -2 638 -47 3 -48 3 0 90 0 89 104 0 c58 0 107 -3 109 -7z m-154 -745 c0
-293 -3 -551 -7 -573 l-8 -40 -17 57 c-10 31 -22 78 -25 104 -7 44 -9 48 -47
59 -51 15 -118 49 -134 68 -9 12 -11 113 -9 429 l3 413 80 6 c44 3 99 6 122 7
l43 2 -1 -532z m1271 530 c0 -2 11 -176 24 -388 21 -332 23 -415 16 -600 -8
-187 -31 -394 -45 -409 -3 -2 -5 10 -5 27 0 18 -4 32 -10 32 -5 0 -10 -11 -10
-25 0 -27 -19 -75 -30 -75 -4 0 -1 23 6 52 16 59 18 88 6 88 -4 0 -14 -27 -21
-61 -33 -162 -48 -139 -22 34 24 152 25 167 12 167 -4 0 -14 -42 -21 -92 -26
-191 -46 -266 -66 -246 -3 4 1 62 10 130 24 186 36 366 39 543 2 159 2 160
-20 163 l-23 3 1 330 0 329 79 0 c44 0 80 -1 80 -2z m-846 -390 c4 -172 7
-384 9 -471 l2 -157 -36 0 -36 0 1 223 1 222 -78 0 -77 0 0 135 c0 74 -3 186
-7 248 l-6 112 110 0 111 0 6 -312z m1060 236 c3 -26 6 -69 6 -95 0 -41 -3
-49 -19 -49 -34 0 -38 -20 -30 -145 4 -66 5 -181 1 -255 l-7 -135 -37 -3 c-38
-3 -38 -3 -38 35 0 21 -9 175 -20 343 -11 168 -20 315 -20 328 0 21 4 22 79
22 l78 0 7 -46z m-530 -236 c9 -81 7 -395 -4 -573 -11 -168 -42 -438 -63 -540
-11 -57 -13 -60 -44 -63 -18 -2 -33 -2 -33 1 0 2 11 35 24 74 29 85 41 153 28
153 -5 0 -13 -17 -17 -37 -15 -80 -56 -193 -70 -193 -11 0 -12 6 -6 23 16 43
21 77 12 77 -5 0 -17 -22 -26 -50 -27 -81 -35 -57 -10 33 27 101 39 177 27
177 -5 0 -16 -36 -26 -79 -30 -140 -45 -181 -66 -181 -29 0 -31 11 -15 95 40
205 47 309 52 717 l5 407 47 4 c25 2 76 4 112 5 l66 2 7 -52z m696 -174 c0
-262 -17 -556 -34 -566 -6 -4 -21 -8 -33 -8 -22 0 -23 3 -25 148 l-3 147 -36
3 -36 3 1 245 1 244 82 0 83 0 0 -216z m-1327 -466 c-3 -233 -7 -425 -10 -428
-2 -2 -12 1 -21 6 -14 9 -18 30 -20 108 -3 121 -21 119 -24 -2 l-2 -87 -3 73
c-5 87 -23 97 -23 11 0 -37 -4 -58 -10 -54 -6 3 -10 52 -10 111 0 63 -4 104
-10 104 -6 0 -10 -38 -10 -95 0 -94 0 -95 -21 -83 -21 13 -21 13 -15 373 4
197 8 361 10 362 7 7 92 21 132 22 l42 1 -5 -422z m760 335 l39 -6 -7 -136
c-14 -305 -50 -650 -69 -677 -12 -16 -113 -46 -120 -36 -2 4 2 41 9 83 31 178
65 543 65 707 0 80 -1 79 83 65z m-414 -52 c12 -1 13 -33 8 -203 -7 -204 -22
-352 -52 -518 l-17 -89 -31 6 c-18 3 -33 7 -34 7 -1 1 4 42 12 91 8 50 18 161
22 247 7 178 4 188 -57 188 l-37 0 -7 61 c-7 70 -8 213 -2 220 3 2 44 1 93 -3
48 -3 94 -7 102 -7z m851 -271 l0 -140 -35 0 c-30 0 -39 -5 -53 -31 -22 -40
-102 -152 -106 -147 -2 1 3 50 10 108 7 58 13 160 14 228 l0 122 85 0 85 0 0
-140z m-983 -57 c8 -21 -14 -344 -28 -406 -12 -54 -14 -55 -106 -20 l-43 16 0
213 0 214 85 0 c71 0 87 -3 92 -17z"/>
<path d="M10100 4631 c0 -36 13 -81 23 -81 6 0 7 16 3 40 -6 39 -6 40 24 40
16 0 30 5 30 10 0 6 -18 10 -40 10 -32 0 -40 -4 -40 -19z"/>
<path d="M9440 4445 c0 -19 5 -35 10 -35 6 0 10 11 10 25 0 21 5 25 30 25 17
0 30 5 30 10 0 6 -18 10 -40 10 -39 0 -40 -1 -40 -35z"/>
<path d="M9280 4155 c0 -43 4 -75 10 -75 6 0 10 28 10 65 l0 65 40 0 c22 0 40
5 40 10 0 6 -22 10 -50 10 l-50 0 0 -75z"/>
<path d="M10620 4231 c0 -36 9 -61 22 -61 5 0 6 15 2 35 -6 33 -5 35 20 35 14
0 26 5 26 10 0 6 -16 10 -35 10 -32 0 -35 -2 -35 -29z"/>
<path d="M10263 3893 c-33 -4 -33 -5 -33 -59 0 -34 4 -53 10 -49 6 3 10 24 10
46 0 34 3 39 23 39 35 0 67 11 61 21 -5 9 -12 9 -71 2z"/>
<path d="M10990 3844 c0 -27 4 -43 10 -39 6 3 10 19 10 36 0 19 5 29 14 29 8
0 18 5 21 10 4 6 -7 10 -24 10 -30 0 -31 -1 -31 -46z"/>
<path d="M9667 3643 c-11 -11 -8 -85 3 -78 6 3 10 19 10 36 0 24 4 29 24 29
14 0 28 5 31 10 7 11 -57 14 -68 3z"/>
<path d="M2330 4634 c-91 -17 -142 -49 -170 -104 -25 -48 -25 -83 -1 -135 44
-99 113 -125 421 -159 270 -30 303 -38 341 -76 67 -66 48 -118 -63 -172 -41
-20 -87 -51 -102 -68 -50 -61 -23 -145 60 -182 42 -18 58 -19 170 -13 182 11
171 19 224 -178 150 -562 449 -1349 775 -2037 99 -209 258 -515 279 -537 19
-20 184 -43 307 -43 340 0 665 134 899 370 116 117 117 120 96 222 -185 895
-307 1575 -416 2323 -45 304 -48 314 -114 348 -71 37 -145 49 -329 53 l-179 3
-43 39 c-85 79 -199 59 -225 -39 -10 -35 -14 -38 -63 -49 -127 -27 -136 -26
-203 23 -34 25 -85 76 -115 114 -69 90 -93 108 -147 108 -39 0 -48 -5 -80 -43
-20 -23 -45 -42 -55 -42 -31 0 -73 27 -230 146 -164 124 -206 144 -267 125
-58 -17 -75 -43 -75 -115 l0 -61 -33 -3 c-23 -2 -49 7 -90 31 -161 97 -294
140 -472 151 -41 2 -86 2 -100 0z m155 -45 c144 -18 267 -62 405 -145 75 -45
125 -49 161 -13 18 18 21 29 15 74 -6 56 5 75 51 89 40 12 77 -7 222 -117 237
-180 264 -189 335 -112 23 25 48 45 56 45 30 -1 63 -28 111 -91 99 -128 230
-213 331 -214 73 0 102 25 118 100 13 65 39 90 89 89 54 -2 86 -27 149 -118
62 -89 177 -209 242 -252 l41 -28 -23 -13 c-13 -7 -90 -35 -173 -62 -285 -93
-616 -148 -950 -158 -288 -8 -349 2 -495 83 -44 25 -49 25 -175 19 -145 -6
-185 4 -214 57 -27 47 -7 78 78 119 132 65 163 117 121 204 -40 83 -90 100
-385 130 -273 27 -325 42 -378 105 -83 99 -3 210 158 219 11 0 61 -4 110 -10z
m2412 -764 c16 -19 45 -72 64 -117 39 -95 106 -201 172 -274 l46 -51 37 -227
c20 -125 35 -228 33 -231 -8 -7 -228 34 -291 56 -123 41 -186 89 -312 241
-116 139 -260 194 -606 233 -80 9 -183 25 -230 36 -92 22 -215 76 -244 108
l-19 21 109 0 c326 0 817 92 1095 204 46 19 92 34 101 35 9 1 29 -15 45 -34z
m-1633 -193 c3 -10 26 -93 51 -187 45 -164 57 -196 71 -182 5 5 -50 219 -92
360 -6 18 3 22 23 9 7 -5 29 -63 49 -130 25 -81 42 -122 51 -122 9 0 12 7 9
18 -2 9 -18 62 -35 118 -17 56 -31 104 -31 107 0 3 8 3 18 0 12 -3 23 -22 33
-61 8 -31 19 -55 24 -52 6 3 9 12 8 20 -2 8 -6 32 -9 53 -6 33 -4 37 14 37 11
0 42 -18 68 -41 64 -53 173 -105 271 -129 43 -11 168 -31 278 -44 233 -30 294
-44 392 -92 60 -29 87 -51 155 -127 46 -50 103 -111 128 -135 84 -80 234 -138
431 -164 83 -11 88 -13 93 -37 3 -14 31 -165 62 -336 31 -170 84 -448 119
-617 57 -283 60 -309 45 -323 -14 -13 -21 13 -80 300 -44 211 -69 315 -77 315
-7 0 -13 -4 -13 -10 0 -5 30 -152 66 -326 46 -222 63 -319 55 -327 -13 -13
-11 -19 -61 183 -39 156 -52 191 -65 178 -4 -3 15 -92 42 -197 43 -172 46
-192 32 -206 -14 -14 -18 -6 -39 85 -15 64 -28 100 -37 100 -17 0 -17 -10 12
-119 13 -52 21 -99 18 -104 -12 -20 -194 -132 -288 -177 -169 -81 -374 -138
-556 -155 l-77 -7 -17 46 c-19 51 -45 80 -45 52 0 -9 7 -33 15 -53 18 -43 18
-43 2 -43 -7 0 -62 107 -122 240 -60 132 -112 240 -117 240 -18 0 -3 -41 92
-250 55 -122 100 -223 100 -226 0 -3 -7 -4 -16 -2 -15 3 -87 149 -242 487 -30
65 -46 91 -53 84 -8 -8 19 -75 86 -219 54 -115 112 -242 131 -282 26 -55 30
-72 19 -72 -21 0 -39 31 -159 275 -332 668 -660 1507 -827 2112 -21 78 -39
147 -39 152 0 16 29 1 34 -17z"/>
<path d="M3723 3260 c-60 -36 -87 -101 -71 -173 13 -65 53 -99 121 -105 134
-11 214 103 155 218 -39 75 -134 103 -205 60z"/>
<path d="M4174 2766 c-17 -8 -47 -33 -67 -57 -81 -97 -107 -132 -107 -144 0
-22 40 -227 51 -261 16 -52 58 -80 196 -133 73 -28 137 -51 142 -51 11 0 183
175 198 203 7 12 12 42 12 67 1 50 -42 247 -55 259 -23 21 -285 131 -310 131
-16 -1 -43 -7 -60 -14z"/>
<path d="M4896 2649 c-39 -31 -37 -88 5 -123 38 -33 73 -33 104 -1 36 35 35
96 -1 124 -15 12 -39 21 -54 21 -15 0 -39 -9 -54 -21z"/>
<path d="M4844 2079 c-44 -28 -80 -53 -82 -54 -4 -4 -41 -254 -42 -281 0 -15
26 -44 83 -92 103 -87 113 -92 182 -92 46 0 71 8 144 45 101 50 90 29 112 219
l11 99 -88 88 c-99 99 -132 119 -197 119 -37 0 -58 -9 -123 -51z"/>
<path d="M4444 1836 c-78 -34 -48 -156 39 -156 45 0 77 34 77 83 0 35 -27 77
-49 77 -5 0 -15 2 -23 5 -7 2 -27 -2 -44 -9z"/>
<path d="M4405 1535 c-47 -16 -94 -68 -96 -105 -3 -56 3 -94 21 -131 25 -49
55 -69 103 -69 122 0 206 154 140 258 -15 24 -85 62 -113 61 -8 0 -33 -6 -55
-14z"/>
<path d="M6835 2379 c-374 -30 -660 -104 -768 -199 -62 -55 -74 -103 -59 -229
11 -89 14 -98 44 -123 17 -15 60 -42 95 -61 l63 -33 -57 -24 c-134 -55 -228
-133 -274 -229 -32 -64 -32 -183 0 -264 36 -93 114 -198 219 -299 134 -127
261 -215 427 -298 249 -123 425 -168 690 -177 135 -4 188 -2 260 11 396 75
871 391 1016 677 41 82 63 172 55 233 -12 107 -90 208 -211 277 l-58 33 24 15
c13 9 38 28 55 43 31 27 31 28 37 154 7 182 -9 223 -115 294 -225 150 -899
243 -1443 199z m-494 -694 c252 -86 627 -141 1034 -152 357 -9 608 19 782 87
l74 28 59 -29 c58 -29 160 -112 160 -130 0 -17 -73 -90 -115 -115 -123 -72
-432 -140 -750 -165 -250 -20 -668 0 -975 46 -211 32 -361 73 -498 136 -165
76 -185 111 -109 183 43 41 120 84 212 117 28 10 50 18 51 19 0 0 34 -11 75
-25z m-286 -318 c149 -74 326 -124 550 -156 579 -83 1078 -72 1502 34 160 40
263 87 327 149 48 47 64 50 42 7 -41 -77 -192 -145 -435 -196 -62 -13 -116
-26 -119 -29 -16 -17 41 -15 134 4 189 39 369 113 420 172 24 29 24 29 24 6 0
-14 -10 -34 -23 -46 -28 -27 -118 -67 -182 -83 -58 -14 -76 -26 -52 -35 21 -8
138 30 205 67 40 22 52 26 52 14 0 -35 -189 -114 -324 -135 -38 -6 -73 -13
-78 -16 -13 -8 -9 -34 5 -35 65 -7 191 19 290 61 39 16 72 28 74 27 6 -6 -84
-135 -133 -191 -184 -211 -530 -412 -829 -482 -118 -28 -370 -26 -523 4 -272
54 -548 183 -752 350 -126 103 -234 221 -274 299 -22 43 -21 46 12 29 57 -30
163 -59 174 -48 17 17 2 41 -29 48 -53 11 -181 66 -197 83 -34 38 -12 36 72
-5 119 -58 263 -107 275 -95 7 7 4 13 -9 17 -208 73 -354 145 -354 176 0 23
-6 25 91 -29 130 -73 366 -153 452 -153 47 0 29 18 -30 30 -208 41 -503 169
-503 219 0 31 13 32 44 2 17 -16 63 -45 101 -64z"/>
<path d="M6820 730 c0 -15 42 -29 106 -36 37 -5 54 -3 54 4 0 7 -12 14 -27 17
-16 4 -47 10 -70 16 -53 12 -63 11 -63 -1z"/>
<path d="M6790 680 c0 -14 36 -27 137 -51 123 -28 197 -35 191 -18 -3 8 -33
18 -79 25 -41 7 -111 21 -156 33 -94 24 -93 24 -93 11z"/>
<path d="M6740 630 c0 -13 139 -56 241 -74 160 -29 329 -32 329 -7 0 4 -60 11
-132 15 -141 7 -234 22 -343 55 -74 23 -95 26 -95 11z"/>
</g>
</svg>
